<svg width="57" height="56" fill="none" xmlns="http://www.w3.org/2000/svg"><path d="M29.504 2.066 28.5 3.5l-1.004-1.434a1.75 1.75 0 0 1 2.008 0ZM28.5 5.687a55.17 55.17 0 0 0-7.43 7.055c-4.274 4.916-8.32 11.513-8.32 18.758a15.75 15.75 0 0 0 31.5 0c0-7.245-4.046-13.842-8.32-18.758A55.17 55.17 0 0 0 30.1 6.994 49.413 49.413 0 0 0 28.5 5.687Zm-1.005-3.62L28.5 3.5a238.663 238.663 0 0 1 1.005-1.433l.001.001.004.003.013.01.045.03.16.117c.138.1.337.248.587.439.5.382 1.207.94 2.053 1.66a58.681 58.681 0 0 1 6.203 6.118c4.475 5.147 9.179 12.55 9.179 21.055a19.25 19.25 0 1 1-38.5 0c0-8.505 4.704-15.908 9.18-21.055a58.681 58.681 0 0 1 6.202-6.118 51.273 51.273 0 0 1 2.053-1.66 33.99 33.99 0 0 1 .747-.555l.045-.032.013-.01.004-.002h.001Z" fill="#2F90FF"/><path fill-rule="evenodd" clip-rule="evenodd" d="M39.144 31.547a1.75 1.75 0 0 1 1.428 2.022 12.228 12.228 0 0 1-10.008 9.981 1.75 1.75 0 0 1-.585-3.45 8.728 8.728 0 0 0 7.143-7.125 1.75 1.75 0 0 1 2.022-1.428Z" fill="#2F90FF"/></svg>