<svg width="56" height="56" fill="none" xmlns="http://www.w3.org/2000/svg"><path d="M17.943 7.244a1.75 1.75 0 0 1 2.288.943l1.685 4.047a1.75 1.75 0 1 1-3.232 1.345L17 9.532a1.75 1.75 0 0 1 .943-2.288ZM3.744 21.443a1.75 1.75 0 0 1 2.288-.943l4.047 1.684a1.75 1.75 0 1 1-1.345 3.232L4.687 23.73a1.75 1.75 0 0 1-.943-2.288ZM52.256 21.443a1.75 1.75 0 0 1-.943 2.288l-4.047 1.685a1.75 1.75 0 1 1-1.345-3.232l4.047-1.684a1.75 1.75 0 0 1 2.288.943ZM38.057 7.244A1.75 1.75 0 0 1 39 9.532l-1.684 4.047a1.75 1.75 0 0 1-3.232-1.345l1.685-4.047a1.75 1.75 0 0 1 2.288-.943ZM1.75 35c0-.967.784-1.75 1.75-1.75h49a1.75 1.75 0 1 1 0 3.5h-49A1.75 1.75 0 0 1 1.75 35ZM8.75 43.75c0-.967.784-1.75 1.75-1.75h35a1.75 1.75 0 1 1 0 3.5h-35a1.75 1.75 0 0 1-1.75-1.75Z" fill="#2F90FF"/><path d="M28 20.104A11.376 11.376 0 0 0 17.042 34.53a1.75 1.75 0 0 1-3.372.938 14.875 14.875 0 1 1 28.66 0 1.75 1.75 0 0 1-3.372-.938A11.375 11.375 0 0 0 28 20.104Z" fill="#2F90FF"/></svg>