<svg width="24" height="24" xmlns="http://www.w3.org/2000/svg"><path d="M11.996 18.532a1 1 0 0 1 .994.883l.006.117v1.455a1 1 0 0 1-1.993.117l-.007-.117v-1.455a1 1 0 0 1 1-1Zm6.037-1.932 1.03 1.03a1 1 0 0 1-1.415 1.413l-1.03-1.03a1 1 0 0 1 1.415-1.413Zm-10.66 0a1 1 0 0 1 0 1.414l-1.029 1.03a1 1 0 1 1-1.414-1.415l1.03-1.03a1 1 0 0 1 1.413 0ZM12.01 6.472a5.525 5.525 0 1 1 0 11.05 5.525 5.525 0 0 1 0-11.05ZM11.25 9a.75.75 0 0 0-.743.648l-.007.102v3.004l.007.101a.75.75 0 0 0 .641.642l.102.007h2l.101-.007a.75.75 0 0 0 .642-.642l.007-.101-.007-.102a.75.75 0 0 0-.642-.641l-.101-.007-1.25-.001V9.75l-.007-.102A.75.75 0 0 0 11.25 9Zm9.727 2.018a1 1 0 0 1 .117 1.993l-.117.007h-1.456a1 1 0 0 1-.116-1.994l.116-.006h1.456ZM4.479 10.99a1 1 0 0 1 .116 1.993l-.116.007H3.023a1 1 0 0 1-.117-1.993l.117-.007h1.456Zm1.77-6.116.095.083 1.03 1.03a1 1 0 0 1-1.32 1.497L5.958 7.4 4.93 6.37a1 1 0 0 1 1.32-1.496Zm12.813.083a1 1 0 0 1 .083 1.32l-.083.094-1.03 1.03a1 1 0 0 1-1.497-1.32l.084-.095 1.029-1.03a1 1 0 0 1 1.414 0ZM12 2.013a1 1 0 0 1 .994.883l.006.117v1.455a1 1 0 0 1-1.993.117L11 4.468V3.013a1 1 0 0 1 1-1Z" fill="#2F90FF"/></svg>