<svg width="56" height="56" fill="none" xmlns="http://www.w3.org/2000/svg"><path d="M33.25 33.25a7 7 0 1 1-6.564 9.42 1.75 1.75 0 0 1 3.284-1.21 3.501 3.501 0 1 0 3.281-4.71H8.75a1.75 1.75 0 1 1 0-3.5h24.5ZM27.673 12.55a3.5 3.5 0 0 0-4.703 1.99 1.75 1.75 0 0 1-3.284-1.21 7 7 0 1 1 6.564 9.42h-21a1.75 1.75 0 1 1 0-3.5h21a3.506 3.506 0 0 0 3.106-1.879 3.5 3.5 0 0 0-1.683-4.82Z" fill="#2F90FF"/><path d="M46.923 19.55a3.5 3.5 0 0 0-4.703 1.99 1.75 1.75 0 1 1-3.284-1.21 7 7 0 1 1 6.564 9.42H7a1.75 1.75 0 1 1 0-3.5h38.5a3.506 3.506 0 0 0 3.106-1.879 3.5 3.5 0 0 0-1.683-4.82Z" fill="#2F90FF"/></svg>